<svg xmlns="http://www.w3.org/2000/svg" width="205.203" height="75.395" viewBox="0 0 205.203 75.395">
  <g id="Gruppe_79" data-name="Gruppe 79" transform="translate(-856.899 -117.66)">
    <g id="Gruppe_78" data-name="Gruppe 78" transform="translate(97.859 -277.055)">
      <g id="Gruppe_7" data-name="Gruppe 7" transform="translate(759.04 394.715)">
        <path id="Pfad_13" data-name="Pfad 13" d="M118.328,32.905c0-9.116-6.432-16.421-15.545-16.421a13.815,13.815,0,0,0-10.988,5.368V.19H85.551V48.639h6.243V43.457a13.046,13.046,0,0,0,11.363,5.869c8.741,0,15.171-7.3,15.171-16.421m-6.618,0c0,6.057-3.684,10.926-9.739,10.926-6.494,0-9.989-5.432-9.989-10.74,0-6.494,3.746-11.113,9.989-11.113s9.739,4.869,9.739,10.926m-50.7,15.734H78.558V43.082h-11.3V23.4h8.865V17.422H67.257V5.122H61.014V48.639Zm-7.3-15.734c0-9.054-5.931-16.421-16.3-16.421s-16.3,7.367-16.3,16.421,5.931,16.421,16.3,16.421,16.3-7.3,16.3-16.421m-6.432,0c0,6.057-3.808,10.926-9.865,10.926s-9.741-4.869-9.741-10.926,3.746-10.926,9.741-10.926,9.865,4.869,9.865,10.926M5.883,23.275H17.371V17.42H-.36V48.637H5.883Z" transform="translate(0.36 -0.19)" fill="#fff"/>
        <path id="Pfad_14" data-name="Pfad 14" d="M718.02,111.011c0-9.116,6.432-16.421,15.547-16.421a13.811,13.811,0,0,1,10.989,5.37V95.341H750.8v31.4h-6.243v-5.182a13.046,13.046,0,0,1-11.363,5.869c-8.741,0-15.171-7.3-15.171-16.421m6.618,0c0,6.057,3.684,10.926,9.74,10.926,6.494,0,9.989-5.432,9.989-10.738,0-6.494-3.746-11.115-9.989-11.115s-9.74,4.869-9.74,10.926" transform="translate(-594.019 -78.295)" fill="#fff"/>
      </g>
      <path id="Pfad_15" data-name="Pfad 15" d="M952.62,41.06V72.279h6.243V46.914h11.487V41.059H952.62Zm23.163-12.3V72.277h17.544V66.721h-11.3V47.038h8.865V41.059h-8.865V28.76h-6.243Z" transform="translate(-29.085 370.887)" fill="#fff"/>
      <path id="Pfad_16" data-name="Pfad 16" d="M645.42,376.52l9.052,10.436,9.05-10.436Z" transform="translate(225.089 83.154)" fill="#fff"/>
      <path id="Pfad_17" data-name="Pfad 17" d="M540.82,376.52l9.05,10.436,9.052-10.436Z" transform="translate(311.634 83.154)" fill="#fff"/>
      <path id="Pfad_18" data-name="Pfad 18" d="M436.21,376.52l9.05,10.436,9.052-10.436Z" transform="translate(398.187 83.154)" fill="#fff"/>
    </g>
  </g>
</svg>
