<svg xmlns="http://www.w3.org/2000/svg" width="110.92" height="40.754" viewBox="0 0 110.92 40.754">
  <g id="rotbart_logo_schwarz" transform="translate(0.36 -0.19)">
    <g id="Gruppe_67" data-name="Gruppe 67" transform="translate(-0.36 0.19)">
      <g id="Gruppe_66" data-name="Gruppe 66" transform="translate(0 0)">
        <path id="Pfad_52" data-name="Pfad 52" d="M63.8,17.874C63.8,12.946,60.319,9,55.392,9a7.467,7.467,0,0,0-5.94,2.9V.19H46.078V26.378h3.375v-2.8a7.052,7.052,0,0,0,6.142,3.172c4.725,0,8.2-3.949,8.2-8.876m-3.577,0c0,3.274-1.991,5.906-5.264,5.906-3.51,0-5.4-2.936-5.4-5.805,0-3.51,2.025-6.007,5.4-6.007s5.264,2.632,5.264,5.906m-27.4,8.5H42.3v-3H36.19V12.736h4.792V9.5H36.19V2.856H32.815V26.378Zm-3.949-8.5C28.866,12.98,25.66,9,20.058,9s-8.809,3.982-8.809,8.876,3.206,8.876,8.809,8.876,8.809-3.949,8.809-8.876m-3.476,0c0,3.274-2.058,5.906-5.332,5.906s-5.265-2.632-5.265-5.906,2.025-5.906,5.265-5.906S25.39,14.6,25.39,17.874M3.015,12.668H9.224V9.5H-.36V26.377H3.015Z" transform="translate(0.36 -0.19)" fill="#2b2b2a"/>
        <path id="Pfad_53" data-name="Pfad 53" d="M718.02,103.466c0-4.927,3.477-8.876,8.4-8.876a7.465,7.465,0,0,1,5.94,2.9V95h3.375V111.97h-3.375v-2.8a7.052,7.052,0,0,1-6.142,3.172c-4.725,0-8.2-3.949-8.2-8.876m3.577,0c0,3.274,1.991,5.906,5.265,5.906,3.51,0,5.4-2.936,5.4-5.8,0-3.51-2.025-6.008-5.4-6.008s-5.265,2.632-5.265,5.906" transform="translate(-650.993 -85.782)" fill="#2b2b2a"/>
      </g>
      <path id="Pfad_54" data-name="Pfad 54" d="M952.62,35.409V52.284h3.375V38.573H962.2V35.408H952.62Zm12.52-6.649V52.283h9.483v-3h-6.109V38.64h4.792V35.408h-4.792V28.76Z" transform="translate(-863.704 -26.094)" fill="#2b2b2a"/>
    </g>
    <g id="Gruppe_68" data-name="Gruppe 68" transform="translate(40.373 35.303)">
      <path id="Pfad_55" data-name="Pfad 55" d="M645.42,376.52l4.893,5.641,4.892-5.641Z" transform="translate(-625.9 -376.52)" fill="#2b2b2a"/>
      <path id="Pfad_56" data-name="Pfad 56" d="M540.82,376.52l4.892,5.641,4.893-5.641Z" transform="translate(-531.06 -376.52)" fill="#2b2b2a"/>
      <path id="Pfad_57" data-name="Pfad 57" d="M436.21,376.52l4.892,5.641,4.893-5.641Z" transform="translate(-436.21 -376.52)" fill="#2b2b2a"/>
    </g>
  </g>
</svg>
